<mxfile host="app.diagrams.net" modified="2023-10-26T04:26:27.171Z" agent="Mozilla/5.0 (Windows NT 10.0; Win64; x64) AppleWebKit/537.36 (KHTML, like Gecko) Chrome/118.0.0.0 Safari/537.36" etag="CuVEf2OUTnRGTViaIhzz" version="22.0.8" type="device">
  <diagram id="C5RBs43oDa-KdzZeNtuy" name="Page-1">
    <mxGraphModel dx="2663" dy="1973" grid="1" gridSize="10" guides="1" tooltips="1" connect="1" arrows="1" fold="1" page="1" pageScale="1" pageWidth="827" pageHeight="1169" math="0" shadow="0">
      <root>
        <mxCell id="WIyWlLk6GJQsqaUBKTNV-0" />
        <mxCell id="WIyWlLk6GJQsqaUBKTNV-1" parent="WIyWlLk6GJQsqaUBKTNV-0" />
        <mxCell id="NDhqvqtvOvxC1g0LE03Q-0" value="Enterprise Service Bus (ESB)" style="rounded=1;whiteSpace=wrap;html=1;" vertex="1" parent="WIyWlLk6GJQsqaUBKTNV-1">
          <mxGeometry x="40" y="140" width="710" height="60" as="geometry" />
        </mxCell>
        <mxCell id="NDhqvqtvOvxC1g0LE03Q-1" value="Sistema de Recomendação" style="ellipse;whiteSpace=wrap;html=1;aspect=fixed;" vertex="1" parent="WIyWlLk6GJQsqaUBKTNV-1">
          <mxGeometry x="60" y="280" width="100" height="100" as="geometry" />
        </mxCell>
        <mxCell id="NDhqvqtvOvxC1g0LE03Q-2" value="Gestão de Usuários" style="ellipse;whiteSpace=wrap;html=1;aspect=fixed;" vertex="1" parent="WIyWlLk6GJQsqaUBKTNV-1">
          <mxGeometry x="345" y="270" width="100" height="100" as="geometry" />
        </mxCell>
        <mxCell id="NDhqvqtvOvxC1g0LE03Q-3" value="Gestão da Entrega" style="ellipse;whiteSpace=wrap;html=1;aspect=fixed;" vertex="1" parent="WIyWlLk6GJQsqaUBKTNV-1">
          <mxGeometry x="630" y="270" width="100" height="100" as="geometry" />
        </mxCell>
        <mxCell id="NDhqvqtvOvxC1g0LE03Q-5" value="Usuários" style="strokeWidth=2;html=1;shape=mxgraph.flowchart.database;whiteSpace=wrap;" vertex="1" parent="WIyWlLk6GJQsqaUBKTNV-1">
          <mxGeometry x="352.5" y="480" width="85" height="80" as="geometry" />
        </mxCell>
        <mxCell id="NDhqvqtvOvxC1g0LE03Q-7" value="DataSet" style="strokeWidth=2;html=1;shape=mxgraph.flowchart.direct_data;whiteSpace=wrap;" vertex="1" parent="WIyWlLk6GJQsqaUBKTNV-1">
          <mxGeometry x="60" y="480" width="100" height="60" as="geometry" />
        </mxCell>
        <mxCell id="NDhqvqtvOvxC1g0LE03Q-8" value="" style="endArrow=classic;startArrow=classic;html=1;rounded=0;exitX=0.5;exitY=0;exitDx=0;exitDy=0;entryX=0.097;entryY=0.962;entryDx=0;entryDy=0;entryPerimeter=0;" edge="1" parent="WIyWlLk6GJQsqaUBKTNV-1" source="NDhqvqtvOvxC1g0LE03Q-1" target="NDhqvqtvOvxC1g0LE03Q-0">
          <mxGeometry width="50" height="50" relative="1" as="geometry">
            <mxPoint x="60" y="270" as="sourcePoint" />
            <mxPoint x="160" y="260" as="targetPoint" />
          </mxGeometry>
        </mxCell>
        <mxCell id="NDhqvqtvOvxC1g0LE03Q-9" value="" style="endArrow=classic;startArrow=classic;html=1;rounded=0;exitX=0.5;exitY=0;exitDx=0;exitDy=0;entryX=0.5;entryY=1;entryDx=0;entryDy=0;" edge="1" parent="WIyWlLk6GJQsqaUBKTNV-1" source="NDhqvqtvOvxC1g0LE03Q-2" target="NDhqvqtvOvxC1g0LE03Q-0">
          <mxGeometry width="50" height="50" relative="1" as="geometry">
            <mxPoint x="120" y="290" as="sourcePoint" />
            <mxPoint x="119" y="208" as="targetPoint" />
          </mxGeometry>
        </mxCell>
        <mxCell id="NDhqvqtvOvxC1g0LE03Q-10" value="" style="endArrow=classic;startArrow=classic;html=1;rounded=0;exitX=0.5;exitY=0;exitDx=0;exitDy=0;entryX=0.9;entryY=1.009;entryDx=0;entryDy=0;entryPerimeter=0;" edge="1" parent="WIyWlLk6GJQsqaUBKTNV-1" source="NDhqvqtvOvxC1g0LE03Q-3" target="NDhqvqtvOvxC1g0LE03Q-0">
          <mxGeometry width="50" height="50" relative="1" as="geometry">
            <mxPoint x="405" y="280" as="sourcePoint" />
            <mxPoint x="405" y="210" as="targetPoint" />
          </mxGeometry>
        </mxCell>
        <mxCell id="NDhqvqtvOvxC1g0LE03Q-11" value="" style="endArrow=classic;startArrow=classic;html=1;rounded=0;entryX=0.5;entryY=1;entryDx=0;entryDy=0;" edge="1" parent="WIyWlLk6GJQsqaUBKTNV-1" source="NDhqvqtvOvxC1g0LE03Q-7" target="NDhqvqtvOvxC1g0LE03Q-1">
          <mxGeometry width="50" height="50" relative="1" as="geometry">
            <mxPoint x="120" y="290" as="sourcePoint" />
            <mxPoint x="119" y="208" as="targetPoint" />
          </mxGeometry>
        </mxCell>
        <mxCell id="NDhqvqtvOvxC1g0LE03Q-12" value="" style="endArrow=classic;startArrow=classic;html=1;rounded=0;entryX=0.5;entryY=1;entryDx=0;entryDy=0;exitX=0.5;exitY=0;exitDx=0;exitDy=0;exitPerimeter=0;" edge="1" parent="WIyWlLk6GJQsqaUBKTNV-1" source="NDhqvqtvOvxC1g0LE03Q-5" target="NDhqvqtvOvxC1g0LE03Q-2">
          <mxGeometry width="50" height="50" relative="1" as="geometry">
            <mxPoint x="120" y="490" as="sourcePoint" />
            <mxPoint x="120" y="390" as="targetPoint" />
          </mxGeometry>
        </mxCell>
        <mxCell id="NDhqvqtvOvxC1g0LE03Q-13" value="" style="endArrow=classic;startArrow=classic;html=1;rounded=0;entryX=0.5;entryY=1;entryDx=0;entryDy=0;exitX=0.5;exitY=0;exitDx=0;exitDy=0;exitPerimeter=0;" edge="1" parent="WIyWlLk6GJQsqaUBKTNV-1" source="NDhqvqtvOvxC1g0LE03Q-18" target="NDhqvqtvOvxC1g0LE03Q-3">
          <mxGeometry width="50" height="50" relative="1" as="geometry">
            <mxPoint x="690" y="480" as="sourcePoint" />
            <mxPoint x="405" y="380" as="targetPoint" />
          </mxGeometry>
        </mxCell>
        <mxCell id="NDhqvqtvOvxC1g0LE03Q-14" value="Interface do Administrador" style="whiteSpace=wrap;html=1;aspect=fixed;" vertex="1" parent="WIyWlLk6GJQsqaUBKTNV-1">
          <mxGeometry x="140" y="-50" width="80" height="80" as="geometry" />
        </mxCell>
        <mxCell id="NDhqvqtvOvxC1g0LE03Q-15" value="Interface do Usuário" style="whiteSpace=wrap;html=1;aspect=fixed;" vertex="1" parent="WIyWlLk6GJQsqaUBKTNV-1">
          <mxGeometry x="580" y="-50" width="80" height="80" as="geometry" />
        </mxCell>
        <mxCell id="NDhqvqtvOvxC1g0LE03Q-16" value="" style="endArrow=classic;startArrow=classic;html=1;rounded=0;exitX=0.198;exitY=0.029;exitDx=0;exitDy=0;entryX=0.5;entryY=1;entryDx=0;entryDy=0;exitPerimeter=0;" edge="1" parent="WIyWlLk6GJQsqaUBKTNV-1" source="NDhqvqtvOvxC1g0LE03Q-0" target="NDhqvqtvOvxC1g0LE03Q-14">
          <mxGeometry width="50" height="50" relative="1" as="geometry">
            <mxPoint x="120" y="290" as="sourcePoint" />
            <mxPoint x="119" y="208" as="targetPoint" />
          </mxGeometry>
        </mxCell>
        <mxCell id="NDhqvqtvOvxC1g0LE03Q-17" value="" style="endArrow=classic;startArrow=classic;html=1;rounded=0;exitX=0.822;exitY=0.005;exitDx=0;exitDy=0;entryX=0.5;entryY=1;entryDx=0;entryDy=0;exitPerimeter=0;" edge="1" parent="WIyWlLk6GJQsqaUBKTNV-1" source="NDhqvqtvOvxC1g0LE03Q-0" target="NDhqvqtvOvxC1g0LE03Q-15">
          <mxGeometry width="50" height="50" relative="1" as="geometry">
            <mxPoint x="191" y="152" as="sourcePoint" />
            <mxPoint x="190" y="40" as="targetPoint" />
          </mxGeometry>
        </mxCell>
        <mxCell id="NDhqvqtvOvxC1g0LE03Q-18" value="Entregas" style="strokeWidth=2;html=1;shape=mxgraph.flowchart.database;whiteSpace=wrap;" vertex="1" parent="WIyWlLk6GJQsqaUBKTNV-1">
          <mxGeometry x="637.5" y="480" width="85" height="80" as="geometry" />
        </mxCell>
        <mxCell id="NDhqvqtvOvxC1g0LE03Q-19" value="&lt;b&gt;&lt;font style=&quot;font-size: 14px;&quot;&gt;CAMADA DE DADOS&lt;/font&gt;&lt;/b&gt;" style="text;html=1;align=center;verticalAlign=middle;resizable=0;points=[];autosize=1;strokeColor=none;fillColor=none;" vertex="1" parent="WIyWlLk6GJQsqaUBKTNV-1">
          <mxGeometry x="-210" y="495" width="160" height="30" as="geometry" />
        </mxCell>
        <mxCell id="NDhqvqtvOvxC1g0LE03Q-21" value="&lt;b&gt;&lt;font style=&quot;font-size: 14px;&quot;&gt;CAMADA DE SERVIÇOS&lt;/font&gt;&lt;/b&gt;" style="text;html=1;align=center;verticalAlign=middle;resizable=0;points=[];autosize=1;strokeColor=none;fillColor=none;" vertex="1" parent="WIyWlLk6GJQsqaUBKTNV-1">
          <mxGeometry x="-210" y="315" width="180" height="30" as="geometry" />
        </mxCell>
        <mxCell id="NDhqvqtvOvxC1g0LE03Q-22" value="&lt;b&gt;&lt;font style=&quot;font-size: 14px;&quot;&gt;CAMADA DE CONSUMIDORES&lt;/font&gt;&lt;/b&gt;" style="text;html=1;align=center;verticalAlign=middle;resizable=0;points=[];autosize=1;strokeColor=none;fillColor=none;" vertex="1" parent="WIyWlLk6GJQsqaUBKTNV-1">
          <mxGeometry x="-210" y="-10" width="230" height="30" as="geometry" />
        </mxCell>
      </root>
    </mxGraphModel>
  </diagram>
</mxfile>
